<svg width="24" height="24" viewBox="0 0 24 24" fill="none" xmlns="http://www.w3.org/2000/svg">
<path fill-rule="evenodd" clip-rule="evenodd" d="M3 2C2.44772 2 2 2.44772 2 3C2 3.55228 2.44772 4 3 4H4.14208L6.00921 16.1364C6.02227 16.2321 6.04887 16.3235 6.08702 16.4086C6.20884 16.6804 6.44844 16.8879 6.74086 16.9661C6.8289 16.9898 6.92117 17.0016 7.01554 17L15.8377 17C17.5594 17 19.088 15.8983 19.6324 14.2649L21.9487 7.31623C22.0503 7.01128 21.9992 6.67606 21.8112 6.41529C21.6233 6.15452 21.3214 6 21 6H6.4733L5.98837 2.84794C5.91332 2.36011 5.49357 2 5 2H3ZM6.781 8L7.85792 15L15.8377 15C16.6986 15 17.4629 14.4491 17.7351 13.6325L19.6126 8H6.781Z" fill="#27272A"/>
<path d="M7.5 21C8.32843 21 9 20.3284 9 19.5C9 18.6716 8.32843 18 7.5 18C6.67157 18 6 18.6716 6 19.5C6 20.3284 6.67157 21 7.5 21Z" fill="#27272A"/>
<path d="M20 19.5C20 20.3284 19.3284 21 18.5 21C17.6716 21 17 20.3284 17 19.5C17 18.6716 17.6716 18 18.5 18C19.3284 18 20 18.6716 20 19.5Z" fill="#27272A"/>
</svg>
