<svg width="24" height="24" viewBox="0 0 24 24" fill="none" xmlns="http://www.w3.org/2000/svg">
<path d="M9.5 11C10.3284 11 11 10.3284 11 9.5C11 8.67157 10.3284 8 9.5 8C8.67157 8 8 8.67157 8 9.5C8 10.3284 8.67157 11 9.5 11Z" fill="#FF4B4B"/>
<path d="M16 14.5C16 15.3284 15.3284 16 14.5 16C13.6716 16 13 15.3284 13 14.5C13 13.6716 13.6716 13 14.5 13C15.3284 13 16 13.6716 16 14.5Z" fill="#FF4B4B"/>
<path d="M14.7071 10.7071C15.0976 10.3166 15.0976 9.68342 14.7071 9.29289C14.3166 8.90237 13.6834 8.90237 13.2929 9.29289L9.29289 13.2929C8.90237 13.6834 8.90237 14.3166 9.29289 14.7071C9.68342 15.0976 10.3166 15.0976 10.7071 14.7071L14.7071 10.7071Z" fill="#FF4B4B"/>
<path fill-rule="evenodd" clip-rule="evenodd" d="M4 4C2.89543 4 2 4.89543 2 6V9.17164C2 9.43685 2.10536 9.69121 2.29289 9.87874L2.99994 10.5858C3.78098 11.3668 3.78098 12.6332 2.99994 13.4142L2.29289 14.1213C2.10536 14.3088 2 14.5631 2 14.8284V18C2 19.1046 2.89543 20 4 20L20 20C21.1046 20 22 19.1046 22 18V14.8284C22 14.5525 21.8866 14.2951 21.6959 14.1102L20.9999 13.4142C20.2189 12.6332 20.2189 11.3668 20.9999 10.5858L21.6959 9.88982C21.8866 9.70495 22 9.44756 22 9.17164V6C22 4.89543 21.1046 4 20 4H4ZM19.5857 14.8284L20 15.2427V18H4V15.2426L4.41415 14.8284C5.97625 13.2663 5.97625 10.7337 4.41415 9.17157L4 8.75742V6L20 6V8.75729L19.5857 9.17157C18.0236 10.7337 18.0236 13.2663 19.5857 14.8284Z" fill="#FF4B4B"/>
</svg>
