<svg width="16" height="16" viewBox="0 0 16 16" fill="none" xmlns="http://www.w3.org/2000/svg">
<g clip-path="url(#clip0_265_16660)">
<path d="M8.5978 2.03829C8.48549 1.81073 8.25373 1.66666 7.99997 1.66666C7.74621 1.66666 7.51445 1.81073 7.40215 2.03829L5.71605 5.45469L1.94582 6.00254C1.6947 6.03903 1.48607 6.21493 1.40765 6.45627C1.32923 6.69761 1.39463 6.96254 1.57634 7.13967L4.30451 9.79897L3.66048 13.554C3.61758 13.8041 3.72039 14.0569 3.92569 14.206C4.13099 14.3552 4.40316 14.3748 4.62778 14.2568L7.99997 12.4839L11.3722 14.2568C11.5968 14.3748 11.869 14.3552 12.0743 14.206C12.2796 14.0569 12.3824 13.8041 12.3395 13.554L11.6954 9.79897L14.4236 7.13967C14.6053 6.96254 14.6707 6.69761 14.5923 6.45627C14.5139 6.21493 14.3052 6.03903 14.0541 6.00254L10.2839 5.45469L8.5978 2.03829Z" fill="#ccc"/>
</g>
<defs>
<clipPath id="clip0_265_16660">
<rect width="13.3333" height="13.3333" fill="white" transform="translate(1.33325 1.33333)"/>
</clipPath>
</defs>
</svg>
